<?xml version="1.0" encoding="utf-8"?>
<!-- Generator: Adobe Illustrator 22.1.0, SVG Export Plug-In . SVG Version: 6.00 Build 0)  -->
<svg version="1.1" id="Layer_1" xmlns="http://www.w3.org/2000/svg" xmlns:xlink="http://www.w3.org/1999/xlink" x="0px" y="0px"
	 viewBox="0 0 322.5 130" style="enable-background:new 0 0 322.5 130;" xml:space="preserve">
<style type="text/css">
	.st0{fill:#66554F;}
	.st1{fill:#CA521E;}
</style>
<g>
	<path class="st0" d="M115,84c3.4,0,5.8,0.8,7.2,1.5l1.5-4.9c-1.7-0.8-5.1-1.7-8.7-1.7c-12,0-19.6,8.1-19.6,19
		c0,11.2,7.2,18.3,18.2,18.3c4.6,0,8.2-1,9.9-1.8l-1.1-4.7c-1.8,0.8-4.2,1.5-7.5,1.5c-7.3,0-12.4-5.1-12.4-13.4
		C102.4,90.3,106.7,84,115,84z"/>
	<path class="st0" d="M142,78.9c-9.7,0-17.8,6.5-17.8,18.9c0,11.7,7.5,18.4,17.2,18.4c8.5,0,17.7-5.5,17.7-18.9
		C159.1,85.9,152.1,78.9,142,78.9z M141.7,111.4c-6.6,0-10.5-6.5-10.5-13.8c0-6.4,2.9-13.9,10.5-13.9c7.7,0,10.4,7.9,10.4,13.8
		C152.1,104.8,148.2,111.4,141.7,111.4z"/>
	<path class="st0" d="M182.1,78.9c-5.8,0-10,2.9-11.9,6.2H170l-0.4-5.4h-6.1c0.2,2.9,0.3,5.7,0.3,9.5v26.3h6.9V93.6
		c0-1.1,0.2-2.3,0.4-3.1c1.1-3.7,4.5-6.4,8.6-6.4c6.1,0,8.1,4.7,8.1,10v21.4h6.9V93.3C194.7,82.1,187.5,78.9,182.1,78.9z"/>
	<path class="st0" d="M220.1,78.9c-5.8,0-10,2.9-11.9,6.2H208l-0.4-5.4h-6.1c0.2,2.9,0.3,5.7,0.3,9.5v26.3h6.9V93.6
		c0-1.1,0.2-2.3,0.4-3.1c1.1-3.7,4.5-6.4,8.6-6.4c6.1,0,8.1,4.7,8.1,10v21.4h6.9V93.3C232.7,82.1,225.5,78.9,220.1,78.9z"/>
	<path class="st0" d="M254.3,78.9c-10.5,0-17,8.1-17,19.2c0,10.8,6.6,18,18,18c5.3,0,9.4-1.1,11.9-2.1l-1.2-4.5
		c-2.3,0.9-5.2,1.7-9.6,1.7c-6.4,0-12.2-3.2-12.3-12.7h24.9c0.1-0.8,0.2-1.7,0.2-3.1C269.1,88.4,265.8,78.9,254.3,78.9z M244,94
		c0.5-4.6,3.3-10.5,9.7-10.5c6.5,0,8.8,5.5,8.7,10.5H244z"/>
	<path class="st0" d="M290.7,84c3.4,0,5.8,0.8,7.2,1.5l1.5-4.9c-1.7-0.8-5.1-1.7-8.7-1.7c-12,0-19.6,8.1-19.6,19
		c0,11.2,7.2,18.3,18.2,18.3c4.6,0,8.2-1,9.9-1.8l-1.1-4.7c-1.8,0.8-4.2,1.5-7.5,1.5c-7.3,0-12.4-5.1-12.4-13.4
		C278.1,90.3,282.4,84,290.7,84z"/>
	<path class="st0" d="M312.5,70.9c5.8-1.5,10-6.4,10-12.2c0-7-6.2-12.7-13.7-12.7c-3.7,0-7,1.4-9.5,3.5
		c-36.1-16.8-76.4-26-117.2-26.6c-1.5,0-3,0-4.6,0v5c1.5,0,3,0,4.5,0c39.8,0.6,79,9.5,114.2,25.7c-0.7,1.6-1.2,3.3-1.2,5.1
		c0,6.2,4.8,11.3,11.1,12.4l-0.5,0.1v8.4h-5.7v4.7h5.7v19.9c0,4.4,0.8,7.4,2.7,9.2c1.6,1.7,4.2,2.6,7.3,2.6c2.6,0,4.6-0.3,5.9-0.8
		l-0.3-4.8c-0.9,0.2-2.1,0.4-3.7,0.4c-3.5,0-5-2.1-5-6.7V84.4h9.5v-4.7h-9.5V70.9z M300,58.7c0-4.2,3.9-7.7,8.8-7.7
		c4.8,0,8.8,3.5,8.8,7.7s-3.9,7.7-8.8,7.7C303.9,66.4,300,62.9,300,58.7z"/>
</g>
<g>
	<path class="st1" d="M200.2,17.2L184,14.7L176.8,0l-7.4,14.6l-16.2,2.2l6.6,6.5C122.4,25.7,86,35,52.9,50.8c-2.5-2.4-6-3.9-9.9-3.9
		c-7.6,0-13.7,5.7-13.7,12.7c0,5.8,4.2,10.7,10,12.2v7.8h-5.7v4.7h5.7v19.9c0,4.4,0.8,7.4,2.7,9.2c1.6,1.7,4.2,2.6,7.3,2.6
		c2.6,0,4.6-0.3,5.9-0.8l-0.3-4.8c-0.9,0.2-2.1,0.4-3.7,0.4c-3.5,0-5-2.1-5-6.7V84.4h9.5v-4.7h-9.5V72c6.1-1.3,10.7-6.3,10.7-12.3
		c0-1.6-0.4-3.2-1-4.7c33.6-16,70.7-25.1,108.8-26.8l0.2,0.2L162,44.6l14.6-7.5l14.5,7.7l-2.7-16.2L200.2,17.2z M43.1,67.3
		c-4.8,0-8.8-3.5-8.8-7.7s3.9-7.7,8.8-7.7c2,0,3.9,0.6,5.4,1.7c0.1,0.1,0.3,0.2,0.4,0.3c0.1,0,0.1,0.1,0.2,0.1
		c1,0.9,1.7,1.9,2.2,3.1c0,0,0.1,0,0.1,0c0.3,0.8,0.5,1.6,0.5,2.5C51.8,63.9,47.9,67.3,43.1,67.3z"/>
	<path class="st1" d="M30.5,79.6h-6.9v22.4c0,1.2-0.2,2.4-0.6,3.3c-1,2.5-3.9,5.6-8.4,5.6c-5.8,0-7.8-4.5-7.8-11V79.6H0v21.4
		c0,11.5,6,15.1,12.4,15.1c6.2,0,10.1-3.4,11.7-6h0.2l0.4,5.2h6.1c-0.2-2.8-0.3-6-0.3-9.8V79.6z"/>
	<path class="st1" d="M78,78.9c-5.4,0-9.7,2.2-12.3,6.4h-0.2l-0.4-5.6h-6.2c0.2,3.1,0.3,6.7,0.3,11.5V130h6.9v-19h0.2
		c2,3.1,5.8,5.2,10.6,5.2c8.3,0,16.3-6,16.3-19.1C93.2,86,86.7,78.9,78,78.9z M75.7,111.2c-4.1,0-8-2.4-9.3-7.2
		c-0.2-0.8-0.3-1.8-0.3-2.7v-7.1c0-0.9,0.2-1.8,0.4-2.7c1.1-4.4,5.1-7.6,9.4-7.6c6.8,0,10.3,6.2,10.3,13.4
		C86.2,105.3,82.6,111.2,75.7,111.2z"/>
</g>
</svg>
