<?xml version="1.0" encoding="iso-8859-1"?>
<svg version="1.1" xmlns="http://www.w3.org/2000/svg" xmlns:xlink="http://www.w3.org/1999/xlink" x="0px" y="0px" width="49.6px" height="49.7px" xml:space="preserve">
	<polygon style="fill:#1A4C6D;" points="23.4,31.2 23.7,37.3 24.2,37.3 23.9,31.2 	"/>
	<polygon style="fill:#1A4C6D;" points="25.6,37.3 26.1,37.3 26.4,31.2 25.9,31.2 	"/>
	<polygon style="fill:#1A4C6D;" points="27.4,37.2 27.9,37.3 28.8,31 28.3,30.9 	"/>
	<polygon style="fill:#1A4C6D;" points="18.6,30.4 19.9,37.2 20.4,37.1 19.1,30.3 	"/>
	<polygon style="fill:#1A4C6D;" points="21,31 21.9,37.3 22.4,37.2 21.5,30.9 	"/>
	<polygon style="fill:#1A4C6D;" points="29.4,37.1 29.9,37.2 31.2,30.4 30.7,30.3 	"/>
		<path style="fill:#1A4C6D;" d="M24.8,0C11.1,0,0,11.1,0,24.8s11.1,24.9,24.8,24.9c13.7,0,24.8-11.1,24.8-24.8C49.6,11.2,38.5,0,24.8,0z
			 M33.1,28.5l-2.4,9.6H18.8l-2.3-9.6c-2.4-0.6-3.9-1.9-3.9-4.3c0-4.3,4.8-7.8,10.9-8.2v-4.4h1c-2-1.4,0.2-2.3-0.1-4.4
			c1.6,1.8,2,3.4,0.6,4.4h1V16c6.1,0.4,10.9,3.9,10.9,8.2C36.9,26.6,35.5,27.8,33.1,28.5z"/>
		<path style="fill:#1A4C6D;" d="M17.8,28.5L17.7,29c2.1,0.6,4.9,0.9,7.6,0.9c2.4,0,4.8-0.3,6.7-0.8l-0.1-0.4C27.9,29.7,21.8,29.7,17.8,28.5z"
			/>
</svg>