<!-- Generator: Adobe Illustrator 22.1.0, SVG Export Plug-In  -->
<svg version="1.1" xmlns="http://www.w3.org/2000/svg" xmlns:xlink="http://www.w3.org/1999/xlink" x="0px" y="0px" width="47.8px" height="49.7px" xml:space="preserve">
<g>
	<path style="fill:#3C3C46;" d="M45.4,10v6.8h-43V10C2.3,8.9,3.1,7.9,4.2,7.8c0.1,0,0.2,0,0.3,0h3.8v1.3c0,1.3,1.3,2.3,2.6,2.3h3.5
		c1.2,0,2.2-0.9,2.3-2.2c0,0,0-0.1,0-0.1V7.8h14.3v1.3c0,1.2,0.9,2.2,2.1,2.3c0,0,0.1,0,0.1,0h3.5c1.3,0,2.6-1,2.6-2.3V7.8h3.8
		c1.1-0.1,2.1,0.8,2.2,1.9C45.4,9.8,45.4,9.9,45.4,10 M45.4,44.6c0,1.3-0.8,2.7-2.2,2.7H4.5c-1.3,0-2.2-1.4-2.2-2.7V19.1h43V44.6z
		 M10.9,2.4h3.4V9h-3.4V2.4z M33.3,2.4H37V9h-3.7V2.4z M43.5,5.4c-0.1,0-0.2,0-0.3,0h-3.8V2.1c0-1.3-1.3-2.1-2.6-2.1h-3.5
		c-1.3,0-2.3,0.8-2.3,2.1v3.3H16.7V2.1c0-1.3-1-2.1-2.3-2.1h-3.5C9.6,0,8.4,0.8,8.4,2.1v3.3H4.5C2.1,5.3,0.1,7.2,0,9.7
		C0,9.8,0,9.9,0,10v34.6c0,2.6,1.9,5.1,4.5,5.1h38.7c2.6,0,4.5-2.5,4.5-5.1V10C47.9,7.6,46,5.5,43.5,5.4"/>
	<path style="fill:#993300;" d="M21.1,30.6c0.4-0.1,0.7-0.3,0.8-0.7l1.9-3.8l1.9,3.8c0.1,0.4,0.5,0.6,0.8,0.7l4.2,0.6l-3,2.9
		c-0.3,0.3-0.4,0.7-0.4,1.1l0.7,4.2l-3.8-2l-0.5-0.1l-0.5,0.1l-3.8,2l0.7-4.2c0.1-0.4-0.1-0.8-0.4-1.1l-3-2.9L21.1,30.6z M17.9,35.5
		l-1.1,6c0,0.3,0,0.5,0.1,0.8c0.3,0.6,1,0.8,1.6,0.5l5.4-2.8l5.4,2.8l0.5,0.1c0.3,0,0.5-0.1,0.7-0.2c0.4-0.3,0.5-0.7,0.5-1.1l-1.1-6
		l4.4-4.2c0.3-0.3,0.4-0.8,0.3-1.3c-0.2-0.4-0.5-0.7-1-0.8l-6-0.9L25,22.9c-0.1-0.2-0.3-0.4-0.6-0.6c-0.6-0.3-1.3,0-1.6,0.6
		l-2.7,5.4l-6,0.9c-0.4,0.1-0.8,0.4-1,0.8c-0.1,0.4,0,0.9,0.3,1.3L17.9,35.5z"/>
</g>
</svg>