<?xml version="1.0" encoding="iso-8859-1"?>
<svg version="1.1" xmlns="http://www.w3.org/2000/svg" xmlns:xlink="http://www.w3.org/1999/xlink" x="0px" y="0px" width="49.6px" height="49.7px" xml:space="preserve">
	<rect style="fill:#BC4F19;" x="24.6" y="26.4" class="st0" width="11.2" height="0.9"/>
	<rect style="fill:#BC4F19;" x="24.6" y="28.4" class="st0" width="11.2" height="0.9"/>
	<path style="fill:#BC4F19;" d="M19,23.6c0.5-0.3,0.9-1,0.9-1.7c0-1.2-0.9-2.1-2.1-2.1c-1.1,0-2.1,0.9-2.1,2.1c0,0.7,0.4,1.3,0.9,1.7
		c-2.1,0.8-2.7,3.6-2.7,5.9h7.8C21.7,27.2,21.2,24.4,19,23.6z"/>
	<path style="fill:#BC4F19;" d="M24.8,0C11.1,0,0,11.1,0,24.8s11.1,24.8,24.8,24.8c13.7,0,24.8-11.1,24.8-24.8S38.5,0,24.8,0z M38.1,31.4
		c0,1-0.7,1.7-1.6,1.7H13.2c-0.9,0-1.7-0.8-1.7-1.7V18.2c0-0.9,0.8-1.7,1.7-1.7h23.2c0.9,0,1.7,0.8,1.7,1.7V31.4z"/>
	<rect style="fill:#BC4F19;" x="24.6" y="24.4" class="st0" width="11.2" height="0.9"/>
	<rect style="fill:#BC4F19;" x="24.6" y="19.9" class="st0" width="11.2" height="0.9"/>
</svg>