<?xml version="1.0" encoding="iso-8859-1"?>
<svg version="1.1" xmlns="http://www.w3.org/2000/svg" xmlns:xlink="http://www.w3.org/1999/xlink" x="0px" y="0px" width="49.6px" height="45px" xml:space="preserve">
<g>
	<path style="fill:#BC4F19;" d="M44.5,8h-4.8c-4.1-4.9-10.3-8-17.2-8C10.1,0,0,10.1,0,22.5C0,35,10.1,45,22.5,45c7.3,0,13.8-3.5,17.9-8.9h4.1
		c1.7,0,5-1.1,5-5V13C49.6,11.2,48.5,8,44.5,8z M48.4,31.1c0,3-2.3,3.7-3.4,3.9c-0.5,0.1-0.9,0.1-0.9,0.1H22.7
		c-4.3,0-4.3-4.3-4.3-4.3v-7.3c-3.4-4.7-8.5-12.2-8.5-15c2.5,4.3,6,6.8,8.5,8.2v-3.4C18.4,9,22.7,9,22.7,9h21.4c0.4,0,0.7,0,1.1,0.1
		c3.2,0.4,3.2,3.7,3.2,3.9C48.4,13,48.4,31.1,48.4,31.1z"/>
	<path style="fill:#FFFFFF;" d="M48.4,31.1c0,3-2.3,3.7-3.4,3.9c-0.5,0.1-0.9,0.1-0.9,0.1H22.7c-4.3,0-4.3-4.3-4.3-4.3v-7.3
		c-3.4-4.7-8.5-12.2-8.5-15c2.5,4.3,6,6.8,8.5,8.2v-3.4C18.4,9,22.7,9,22.7,9h21.4c0.4,0,0.7,0,1.1,0.1c3.2,0.4,3.2,3.7,3.2,3.9
		C48.4,13,48.4,31.1,48.4,31.1z"/>
	<circle style="fill:#BC4F19;" cx="26" cy="22.5" r="2.3"/>
	<path style="fill:#BC4F19;" d="M33.6,20.2c-1.3,0-2.3,1-2.3,2.3s1,2.3,2.3,2.3s2.3-1,2.3-2.3S34.9,20.2,33.6,20.2z"/>
	<path style="fill:#BC4F19;" d="M41.2,20.2c-1.3,0-2.3,1-2.3,2.3s1,2.3,2.3,2.3s2.3-1,2.3-2.3S42.4,20.2,41.2,20.2z"/>
</g>
</svg>