<?xml version="1.0" encoding="iso-8859-1"?>
<svg version="1.1" xmlns="http://www.w3.org/2000/svg" xmlns:xlink="http://www.w3.org/1999/xlink" x="0px" y="0px" width="69px" height="64.5px" xml:space="preserve">
<path style="fill:#BC4F19;" d="M65.4,12.6h-7.6C51.9,4.9,42.6,0,32.2,0C14.4,0,0,14.4,0,32.2s14.4,32.2,32.2,32.2c10.4,0,19.6-4.9,25.5-12.6
	h7.6c1.3,0,3.6-0.8,3.6-3.6v-32C69,14.9,68.2,12.6,65.4,12.6z"/>
<path  style="fill:#FFFFFF;" d="M64.7,13.9H28.1c0,0-2.8,0-2.8,2.8v8c-3.5-1.9-8.5-5.4-11.9-11.4c0,3.9,7.1,14.3,11.9,20.9v13.5
	c0,0,0,2.8,2.8,2.8h36.6c0,0,2.8,0,2.8-2.8v-31C67.5,16.7,67.5,13.9,64.7,13.9z"/>
<g>
	<polygon style="fill:#BC4F19;" points="39.6,33.7 33.8,33.7 33.8,35.2 35.8,35.2 35.8,45 37.6,45 37.6,35.2 39.6,35.2 	"/>
	<path style="fill:#BC4F19;" d="M41.3,33.7L38.6,45h1.8l0.5-2.4h2.4l0.5,2.4h1.8l-2.7-11.3H41.3z M41.2,41.1l0.9-4.1h0l0.9,4.1H41.2z"/>
	<polygon style="fill:#BC4F19;" points="48.2,33.7 46.4,33.7 46.4,45 51.6,45 51.6,43.4 48.2,43.4 	"/>
	<polygon style="fill:#BC4F19;" points="56.5,38.2 58.8,33.7 57.1,33.7 54.5,38.9 54.5,38.9 54.5,33.7 52.8,33.7 52.8,45 54.5,45 54.5,41.6
		55.4,40 57.4,45 59.3,45 	"/>
	<path style="fill:#BC4F19;" d="M54.3,30.2c0.2,0.2,0.5,0.4,0.9,0.6c0.3,0.1,0.7,0.2,1.1,0.2c0.5,0,1-0.1,1.3-0.3c0.4-0.2,0.7-0.4,0.9-0.7
		c0.2-0.3,0.4-0.6,0.5-1c0.1-0.4,0.1-0.9,0.1-1.3c0-0.4,0-0.8-0.1-1.1c0-0.3-0.1-0.6-0.2-0.9c-0.1-0.2-0.3-0.5-0.5-0.6
		c-0.2-0.2-0.5-0.3-0.9-0.5L56.1,24c-0.2-0.1-0.4-0.2-0.5-0.3c-0.1-0.1-0.2-0.2-0.3-0.3c-0.1-0.1-0.1-0.3-0.1-0.4c0-0.1,0-0.3,0-0.6
		c0-0.2,0-0.4,0-0.5c0-0.2,0.1-0.3,0.2-0.5c0.1-0.1,0.2-0.2,0.3-0.3c0.1-0.1,0.3-0.1,0.5-0.1c0.4,0,0.7,0.1,0.9,0.4
		c0.2,0.3,0.3,0.6,0.3,1v0.4H59V22c0-0.7-0.2-1.2-0.7-1.7c-0.2-0.2-0.5-0.4-0.9-0.6c-0.3-0.1-0.7-0.2-1.1-0.2
		c-0.5,0-0.9,0.1-1.2,0.2c-0.3,0.2-0.6,0.4-0.9,0.7c-0.2,0.3-0.4,0.6-0.5,1c-0.1,0.4-0.2,0.8-0.2,1.2c0,0.7,0.1,1.3,0.4,1.8
		c0.2,0.5,0.7,0.9,1.4,1.1l1.2,0.5c0.2,0.1,0.4,0.2,0.5,0.2c0.1,0.1,0.2,0.2,0.3,0.3c0.1,0.1,0.1,0.3,0.1,0.5c0,0.2,0,0.4,0,0.7
		c0,0.3,0,0.5,0,0.7c0,0.2-0.1,0.4-0.2,0.5c-0.1,0.1-0.2,0.3-0.4,0.3s-0.4,0.1-0.6,0.1c-0.4,0-0.7-0.1-0.9-0.4
		c-0.2-0.2-0.3-0.5-0.3-0.8v-0.5h-1.6v0.6c0,0.4,0.1,0.7,0.2,1.1C53.8,29.7,54,29.9,54.3,30.2z"/>
	<polygon style="fill:#BC4F19;" points="46.6,30.9 48.2,30.9 48.2,21.1 50.1,21.1 50.1,19.5 44.7,19.5 44.7,21.1 46.6,21.1 	"/>
	<polygon style="fill:#BC4F19;" points="50.7,22.3 52.4,21.2 52.4,19.5 50.7,19.5 	"/>
	<polygon style="fill:#BC4F19;" points="44.5,29.2 41.3,29.2 41.3,25.9 44.1,25.9 44.1,24.4 41.3,24.4 41.3,21.1 44.5,21.1 44.5,19.5
		39.7,19.5 39.7,30.9 44.5,30.9 	"/>
	<polygon style="fill:#BC4F19;" points="38.6,29.2 35.4,29.2 35.4,19.5 33.8,19.5 33.8,30.9 38.6,30.9 	"/>
</g>
</svg>