<?xml version="1.0" encoding="iso-8859-1"?>
<svg version="1.1" xmlns="http://www.w3.org/2000/svg" xmlns:xlink="http://www.w3.org/1999/xlink" x="0px" y="0px" width="49.652px" height="49.652px" xml:space="preserve">
<!-- Generator: Adobe Illustrator 22.1.0, SVG Export Plug-In  -->
<path d="M24.8,0C11.1,0,0,11.1,0,24.8s11.1,24.8,24.8,24.8s24.8-11.1,24.8-24.8S38.5,0,24.8,0z M16.3,12.4c1.3,0,2.3,1,2.3,2.3
	c0,1.3-1,2.3-2.3,2.3c-1.3,0-2.3-1-2.3-2.3C14,13.5,15,12.4,16.3,12.4z M18.6,34.1H14V18.6h4.6V34.1z M37.3,34.1h-4.6v-8.4
	c0-1.7-0.5-3.5-2.5-3.5s-3.7,1.7-3.7,3.5v8.4h-4.7V18.6h4.7v2.2c1.4-1.8,3.5-2.6,5.7-2.6c2.3,0,5.1,1.1,5.1,7.2V34.1z"/>
</svg>