<?xml version="1.0" encoding="iso-8859-1"?>
<svg version="1.1" xmlns="http://www.w3.org/2000/svg" xmlns:xlink="http://www.w3.org/1999/xlink" x="0px" y="0px" width="49.7px" height="49.7px" xml:space="preserve">
	<polygon points="13,26.7 15,26.7 15,37.3 16.9,37.3 16.9,26.7 18.9,26.7 18.9,24.9 13,24.9 	"/>
	<path d="M28.8,28c-0.6,0-1.2,0.3-1.7,1v-4h-1.7v12.4h1.7v-0.9c0.6,0.7,1.1,1,1.7,1c0.7,0,1.1-0.4,1.3-1c0.1-0.4,0.2-1,0.2-1.9v-3.7
		c0-0.9-0.1-1.5-0.2-1.9C29.9,28.3,29.5,28,28.8,28z M28.6,34.7c0,0.8-0.2,1.2-0.7,1.2c-0.3,0-0.6-0.1-0.8-0.4v-5.6
		c0.3-0.3,0.6-0.4,0.8-0.4c0.5,0,0.7,0.4,0.7,1.3V34.7z"/>
	<path d="M22.3,35.1c-0.4,0.5-0.7,0.8-1.1,0.8c-0.2,0-0.4-0.1-0.4-0.4c0-0.1,0-0.3,0-0.7v-6.8h-1.7v7.3c0,0.7,0.1,1.1,0.1,1.4
		c0.2,0.5,0.5,0.7,1.1,0.7c0.6,0,1.2-0.4,1.9-1.1v1h1.7v-9.2h-1.7V35.1z"/>
	<path d="M23.7,19.5c0.5,0,0.8-0.4,0.8-1.3v-3.9c0-0.9-0.3-1.3-0.8-1.3c-0.5,0-0.8,0.4-0.8,1.3v3.9C22.9,19.1,23.2,19.5,23.7,19.5z"
		/>
	<path d="M24.8,0C11.1,0,0,11.1,0,24.8s11.1,24.8,24.8,24.8s24.8-11.1,24.8-24.8S38.5,0,24.8,0z M27.6,11.6h1.7v6.9
		c0,0.4,0,0.6,0,0.7c0,0.3,0.2,0.4,0.4,0.4c0.3,0,0.7-0.3,1.1-0.8v-7.1h1.7v9.3h-1.7v-1c-0.7,0.8-1.3,1.1-1.9,1.1
		c-0.5,0-0.9-0.2-1.1-0.7c-0.1-0.3-0.1-0.7-0.1-1.4V11.6L27.6,11.6z M21.2,14.7c0-1,0.2-1.7,0.5-2.2c0.5-0.6,1.1-1,2-1
		c0.8,0,1.5,0.3,2,1c0.4,0.5,0.5,1.2,0.5,2.2v3.3c0,1-0.2,1.7-0.5,2.2c-0.5,0.6-1.1,1-2,1c-0.8,0-1.5-0.3-2-1
		c-0.4-0.5-0.5-1.2-0.5-2.2V14.7z M16.7,8.4l1.3,4.9l1.3-4.9h1.9l-2.3,7.5v5.1h-1.9v-5.1c-0.2-0.9-0.5-2.2-1.1-4
		c-0.4-1.2-0.8-2.3-1.2-3.5C14.7,8.4,16.7,8.4,16.7,8.4z M38.2,38.1c-0.3,1.5-1.5,2.6-3,2.7c-3.4,0.4-6.9,0.4-10.4,0.4
		c-3.5,0-6.9,0-10.4-0.4c-1.5-0.2-2.7-1.2-3-2.7C11,36,11,33.7,11,31.6s0-4.4,0.5-6.5c0.3-1.5,1.5-2.6,3-2.7
		c3.4-0.4,6.9-0.4,10.4-0.4c3.5,0,6.9,0,10.4,0.4c1.5,0.2,2.7,1.2,3,2.7c0.5,2.1,0.5,4.4,0.5,6.5S38.7,36,38.2,38.1z"/>
	<path d="M34.1,28c-0.9,0-1.5,0.3-2,0.9c-0.4,0.5-0.5,1.2-0.5,2.2v3.2c0,1,0.2,1.7,0.5,2.2c0.5,0.6,1.1,0.9,2,0.9c0.9,0,1.6-0.3,2-1
		c0.2-0.3,0.3-0.6,0.4-1c0-0.2,0-0.5,0-1.1v-0.2h-1.7c0,0.7,0,1,0,1.1c-0.1,0.4-0.3,0.7-0.7,0.7c-0.6,0-0.9-0.4-0.9-1.3V33h3.3v-1.9
		c0-1-0.2-1.7-0.5-2.2C35.6,28.3,35,28,34.1,28z M34.9,31.6h-1.7v-0.9c0-0.9,0.3-1.3,0.8-1.3c0.6,0,0.8,0.4,0.8,1.3V31.6z"/>
</svg>